HIERARCHY
ROOT Hips
{
  OFFSET -21.6994 31.6921 0
  CHANNELS 6 Xposition Yposition Zposition Zrotation Xrotation Yrotation
  JOINT Bip01_Pelvis
  {
    OFFSET 0 0 0
    CHANNELS 6 Xposition Yposition Zposition Zrotation Xrotation Yrotation
    JOINT BN_Tail_01
    {
      OFFSET -7.25226 -1.74978 0
      CHANNELS 6 Xposition Yposition Zposition Zrotation Xrotation Yrotation
      JOINT BN_Tail_02
      {
        OFFSET 15.788 0 0
        CHANNELS 6 Xposition Yposition Zposition Zrotation Xrotation Yrotation
        JOINT BN_Tail_03
        {
          OFFSET 16.0015 0 0
          CHANNELS 6 Xposition Yposition Zposition Zrotation Xrotation Yrotation
          JOINT BN_Tail_04
          {
            OFFSET 16.1689 0 0
            CHANNELS 6 Xposition Yposition Zposition Zrotation Xrotation Yrotation
            End Site
            {
              OFFSET 0 0 0
            }
          }
        }
      }
    }
    JOINT Bip01_Spine
    {
      OFFSET 6.38383 2.70859 0.585432
      CHANNELS 6 Xposition Yposition Zposition Zrotation Xrotation Yrotation
      JOINT BN_Mane_02
      {
        OFFSET 6.12662 8.45826 0
        CHANNELS 6 Xposition Yposition Zposition Zrotation Xrotation Yrotation
        End Site
        {
          OFFSET 0 0 0
        }
      }
      JOINT Bip01_R_Thigh
      {
        OFFSET -7.04074 -2.18223 -5.47025
        CHANNELS 6 Xposition Yposition Zposition Zrotation Xrotation Yrotation
        JOINT Bip01_R_Calf
        {
          OFFSET 13.6591 0 0
          CHANNELS 6 Xposition Yposition Zposition Zrotation Xrotation Yrotation
          JOINT Bip01_R_HorseLink
          {
            OFFSET 9.07516 0 0
            CHANNELS 6 Xposition Yposition Zposition Zrotation Xrotation Yrotation
            JOINT Bip01_R_Foot
            {
              OFFSET 8.13856 0 0
              CHANNELS 6 Xposition Yposition Zposition Zrotation Xrotation Yrotation
              JOINT Bip01_R_Toe0
              {
                OFFSET 3.79737 6.30086 0
                CHANNELS 6 Xposition Yposition Zposition Zrotation Xrotation Yrotation
                JOINT Bip01_R_Toe0Nub
                {
                  OFFSET 0.838764 0 0
                  CHANNELS 6 Xposition Yposition Zposition Zrotation Xrotation Yrotation
                  End Site
                  {
                    OFFSET 0 0 0
                  }
                }
              }
            }
          }
        }
      }
      JOINT Bip01_L_Thigh
      {
        OFFSET -6.18667 -2.14873 5.3508
        CHANNELS 6 Xposition Yposition Zposition Zrotation Xrotation Yrotation
        JOINT Bip01_L_Calf
        {
          OFFSET 13.6591 0 0
          CHANNELS 6 Xposition Yposition Zposition Zrotation Xrotation Yrotation
          JOINT Bip01_L_HorseLink
          {
            OFFSET 9.07515 0 0
            CHANNELS 6 Xposition Yposition Zposition Zrotation Xrotation Yrotation
            JOINT Bip01_L_Foot
            {
              OFFSET 8.13856 0 0
              CHANNELS 6 Xposition Yposition Zposition Zrotation Xrotation Yrotation
              JOINT Bip01_L_Toe0
              {
                OFFSET 3.79737 6.30086 0
                CHANNELS 6 Xposition Yposition Zposition Zrotation Xrotation Yrotation
                JOINT Bip01_L_Toe0Nub
                {
                  OFFSET 0.838764 0 0
                  CHANNELS 6 Xposition Yposition Zposition Zrotation Xrotation Yrotation
                  End Site
                  {
                    OFFSET 0 0 0
                  }
                }
              }
            }
          }
        }
      }
      JOINT Bip01_Spine1
      {
        OFFSET 12.1687 -0.0105438 0
        CHANNELS 6 Xposition Yposition Zposition Zrotation Xrotation Yrotation
        JOINT BN_Mane_R_01
        {
          OFFSET -0.157498 5.09008 -6.54008
          CHANNELS 6 Xposition Yposition Zposition Zrotation Xrotation Yrotation
          End Site
          {
            OFFSET 0 0 0
          }
        }
        JOINT BN_Mane_R_02
        {
          OFFSET -0.1575 5.09007 6.54
          CHANNELS 6 Xposition Yposition Zposition Zrotation Xrotation Yrotation
          End Site
          {
            OFFSET 0 0 0
          }
        }
        JOINT BN_Mane_01
        {
          OFFSET 8.29709 8.50414 0
          CHANNELS 6 Xposition Yposition Zposition Zrotation Xrotation Yrotation
          End Site
          {
            OFFSET 0 0 0
          }
        }
        JOINT Bip01_Spine2
        {
          OFFSET 13.2802 -0.0100708 1.51992e-005
          CHANNELS 6 Xposition Yposition Zposition Zrotation Xrotation Yrotation
          JOINT Bip01_Neck
          {
            OFFSET 12.4891 -6.66662 0
            CHANNELS 6 Xposition Yposition Zposition Zrotation Xrotation Yrotation
            JOINT Bip01_R_Clavicle
            {
              OFFSET -7.4542 -2.82621 -1.17874
              CHANNELS 6 Xposition Yposition Zposition Zrotation Xrotation Yrotation
              JOINT Bip01_R_UpperArm
              {
                OFFSET 13.2557 0 0
                CHANNELS 6 Xposition Yposition Zposition Zrotation Xrotation Yrotation
                JOINT Bip01_R_Forearm
                {
                  OFFSET 12.8897 0 0
                  CHANNELS 6 Xposition Yposition Zposition Zrotation Xrotation Yrotation
                  JOINT Bip01_R_Hand
                  {
                    OFFSET 11.2622 0 0
                    CHANNELS 6 Xposition Yposition Zposition Zrotation Xrotation Yrotation
                    JOINT Bip01_R_Finger0
                    {
                      OFFSET 3.98015 -0.208661 -0.0949803
                      CHANNELS 6 Xposition Yposition Zposition Zrotation Xrotation Yrotation
                      JOINT Bip01_R_Finger0Nub
                      {
                        OFFSET 6.57561 0 0
                        CHANNELS 6 Xposition Yposition Zposition Zrotation Xrotation Yrotation
                        End Site
                        {
                          OFFSET 0 0 0
                        }
                      }
                    }
                  }
                }
              }
            }
            JOINT Bip01_L_Clavicle
            {
              OFFSET -7.4541 -2.82679 1.17708
              CHANNELS 6 Xposition Yposition Zposition Zrotation Xrotation Yrotation
              JOINT Bip01_L_UpperArm
              {
                OFFSET 13.2558 0 0
                CHANNELS 6 Xposition Yposition Zposition Zrotation Xrotation Yrotation
                JOINT Bip01_L_Forearm
                {
                  OFFSET 12.8897 0 0
                  CHANNELS 6 Xposition Yposition Zposition Zrotation Xrotation Yrotation
                  JOINT Bip01_L_Hand
                  {
                    OFFSET 11.2622 0 0
                    CHANNELS 6 Xposition Yposition Zposition Zrotation Xrotation Yrotation
                    JOINT Bip01_L_Finger0
                    {
                      OFFSET 3.98014 -0.20866 0.0949764
                      CHANNELS 6 Xposition Yposition Zposition Zrotation Xrotation Yrotation
                      JOINT Bip01_L_Finger0Nub
                      {
                        OFFSET 6.57562 0 0
                        CHANNELS 6 Xposition Yposition Zposition Zrotation Xrotation Yrotation
                        End Site
                        {
                          OFFSET 0 0 0
                        }
                      }
                    }
                  }
                }
              }
            }
            JOINT Bip01_Neck1
            {
              OFFSET 4.19352 -0.00332451 0
              CHANNELS 6 Xposition Yposition Zposition Zrotation Xrotation Yrotation
              JOINT Bip01_Head
              {
                OFFSET 4.17604 0.298252 0
                CHANNELS 6 Xposition Yposition Zposition Zrotation Xrotation Yrotation
                JOINT BN_Eye_R_01
                {
                  OFFSET 6.53258 -3.90694 -2.55361
                  CHANNELS 6 Xposition Yposition Zposition Zrotation Xrotation Yrotation
                  End Site
                  {
                    OFFSET 0 0 0
                  }
                }
                JOINT BN_Eye_L_01
                {
                  OFFSET 6.5326 -3.90694 2.55371
                  CHANNELS 6 Xposition Yposition Zposition Zrotation Xrotation Yrotation
                  End Site
                  {
                    OFFSET 0 0 0
                  }
                }
                JOINT BN_Ear_R_01
                {
                  OFFSET 1.75934 -4.1584 -4.45634
                  CHANNELS 6 Xposition Yposition Zposition Zrotation Xrotation Yrotation
                  End Site
                  {
                    OFFSET 0 0 0
                  }
                }
                JOINT BN_Ear_L_01
                {
                  OFFSET 1.75933 -4.15841 4.45616
                  CHANNELS 6 Xposition Yposition Zposition Zrotation Xrotation Yrotation
                  End Site
                  {
                    OFFSET 0 0 0
                  }
                }
                JOINT BN_Beard_L_01
                {
                  OFFSET 11.2964 -1.06183 2.32054
                  CHANNELS 6 Xposition Yposition Zposition Zrotation Xrotation Yrotation
                  End Site
                  {
                    OFFSET 0 0 0
                  }
                }
                JOINT BN_Beard_R_01
                {
                  OFFSET 11.2964 -1.06182 -2.32036
                  CHANNELS 6 Xposition Yposition Zposition Zrotation Xrotation Yrotation
                  End Site
                  {
                    OFFSET 0 0 0
                  }
                }
                JOINT BN_Mouth_0
                {
                  OFFSET 1.3149 1.30001 0
                  CHANNELS 6 Xposition Yposition Zposition Zrotation Xrotation Yrotation
                  End Site
                  {
                    OFFSET 0 0 0
                  }
                }
                JOINT Bip01_HeadNub
                {
                  OFFSET 12.6869 0 0
                  CHANNELS 6 Xposition Yposition Zposition Zrotation Xrotation Yrotation
                  End Site
                  {
                    OFFSET 0 0 0
                  }
                }
              }
            }
          }
        }
      }
    }
  }
}
MOTION
Frames:	4
Frame Time:	0.0333333
-21.562 26.7955 0.0950595 -180 -90 -90 0 1.13687e-013 0 -99.1671 0.496068 -90.6011 -7.25225 -1.74978 2.91056e-011 -30.6075 13.9136 -172.383 15.788 3.8147e-006 -9.53674e-007 -38.8127 24.3694 -3.75337 16.0015 3.55271e-015 -2.88658e-015 -26.0386 -16.5838 -11.7913 16.1689 -3.8147e-006 -2.27374e-013 -28.7988 0.148963 12.1282 6.39216 2.73214 0.362755 19.7425 8.86483 -2.44983 6.12663 8.45826 6.36593e-011 -88.9944 -0.0321808 -179.967 -7.17799 -1.29625 -5.35532 -91.4525 1.21164 173.796 13.6591 -5.72205e-006 -6.21725e-015 -45.0553 6.97597e-006 6.65199e-006 9.07515 1.90735e-006 1.77636e-015 32.8712 1.30891e-006 -4.494e-007 8.13856 -3.8147e-006 -3.55271e-015 30.2975 3.00021 5.46908 3.79737 6.30086 -7.01163e-011 90.3598 1.73279e-009 2.12516e-009 0.838761 9.82547e-015 1.77636e-015 -2.5066e-008 3.09094e-010 -1.86195e-009 -6.71966 0.376436 5.35981 -143.865 -3.13661 -176.397 13.6591 4.76837e-007 1.77636e-015 -104.491 -1.20459e-005 6.78633e-006 9.07516 1.90735e-006 0 72.9976 3.09963e-006 -9.75896e-006 8.13855 1.90735e-006 -2.66454e-015 -3.72773 -12.7786 -4.86858 3.79737 6.30085 -1.53597e-009 90.3294 -0.000566216 -12.4981 0.838762 2.23517e-008 -3.55271e-015 -179.96 0.000153812 -0.000136998 12.1681 -0.0104828 -6.71685e-015 -0.849817 -1.98726e-011 3.74749e-011 -0.1575 5.09007 -6.54008 -92.7406 -0.022012 -167.965 -0.157502 5.09006 6.54 87.255 -0.000384725 12.0139 8.29709 8.50413 6.20025e-012 -91.651 -0.0231781 -179.978 13.2792 -0.00985909 5.82002e-011 -8.79614 0.347246 -2.24285 12.4883 -6.66643 9.88049e-009 -15.0319 -1.94362e-005 5.1654e-006 -6.80799 -4.14645 -1.17794 -165.013 -45.5044 121.48 13.2557 -7.10543e-015 1.90735e-006 126.568 67.8359 -159.117 12.8897 -1.90735e-006 1.95399e-014 -91.4646 8.20677e-007 -1.72093e-005 11.2622 2.66453e-015 -3.55271e-015 -78.8208 73.8604 127.132 3.98015 -0.208662 -0.0949803 1.98377 8.46805 -35.5807 6.57561 -8.34464e-007 -1.19209e-007 179.96 1.73018e-005 -2.00579e-006 -6.80799 -4.14645 1.17789 -164.969 55.3224 -93.7183 13.2558 5.32907e-015 -9.53674e-007 71.8762 -17.0065 92.8117 12.8897 -9.53674e-007 -1.77636e-015 -136.933 2.40003e-006 9.67653e-008 11.2623 2.13163e-014 1.77636e-015 -86.3414 -86.1883 -107.716 3.98015 -0.208655 0.0949754 14.0201 -11.2908 54.975 6.57563 -1.77636e-015 -1.19209e-007 -2.65667e-009 -8.69432e-009 -1.96422e-009 4.19499 -0.00312996 -2.45348e-012 1.54591 0.00168122 0.061924 4.17604 0.298254 1.04614e-010 4.35803 -2.62213 2.48388 6.53258 -3.90694 -2.55361 133.025 18.1401 163.594 6.5326 -3.90696 2.55371 -46.976 18.1112 -16.4184 1.75934 -4.1584 -4.45634 2.09756 -40.216 141.37 1.75933 -4.15841 4.45617 -177.878 -40.2253 -38.6126 11.2964 -1.06184 2.32054 151.773 -1.61488 -103.815 11.2964 -1.06183 -2.32036 -28.5999 0.00117776 77.4256 1.31489 1.30001 -1.06914e-013 -147.086 -0.0836329 -179.784 12.6869 -1.90735e-006 1.16416e-010 -5.3724e-008 -4.37521e-011 2.91696e-011 
-21.6375 26.8135 0.060963 -180 -90 -90 0 1.13687e-013 0 -99.2411 0.0550971 -90.2721 -7.25225 -1.74978 2.91038e-011 -30.7891 14.4118 -172.873 15.788 3.8147e-006 -9.53674e-007 -38.894 24.264 -2.18299 16.0015 -5.32907e-015 -3.88578e-016 -26.6878 -15.8757 -13.5053 16.1689 -3.8147e-006 -2.27374e-013 -29.014 0.133435 9.31389 6.41194 2.68069 0.403236 19.2969 8.82801 -2.77356 6.12663 8.45826 1.19743e-010 -88.9944 -0.0321808 -179.967 -7.20727 -1.30013 -5.3568 -91.7165 1.22426 173.776 13.6591 -5.72205e-006 -8.88178e-015 -45.357 6.95703e-006 6.69828e-006 9.07515 1.90735e-006 1.77636e-015 33.048 1.29407e-006 -4.48823e-007 8.13856 -3.8147e-006 -5.32907e-015 30.1823 3.0472 5.52629 3.79737 6.30086 4.77112e-011 90.28 -2.80104e-010 1.05196e-009 0.838761 4.32987e-015 -7.10543e-015 -2.5066e-008 3.09094e-010 -1.86195e-009 -6.68749 0.366053 5.35673 -143.709 -3.0755 -176.467 13.6591 4.76837e-007 1.77636e-015 -104.312 -1.20268e-005 6.82958e-006 9.07516 1.90735e-006 -6.21725e-015 73.3316 3.05742e-006 -9.77715e-006 8.13855 1.90735e-006 0 -4.00009 -12.7653 -4.74833 3.79737 6.30085 -1.76172e-009 90.2289 -6.50352e-005 -12.498 0.838762 2.23518e-008 5.32907e-015 -179.96 0.000153812 -0.000136998 12.1681 -0.0104828 -7.63278e-014 -0.879248 -7.92833e-012 4.33331e-011 -0.1575 5.09007 -6.54008 -92.7406 -0.0220269 -167.965 -0.157502 5.09006 6.54 87.255 -0.000384725 12.0139 8.29709 8.50413 6.08018e-011 -91.651 -0.0231781 -179.978 13.2792 -0.00985909 5.81375e-011 -8.61566 0.342881 -2.26176 12.4883 -6.66643 9.57704e-009 -14.9714 -1.9431e-005 5.18657e-006 -6.81197 -4.13962 -1.17794 -165.078 -45.4536 121.545 13.2557 -3.55271e-015 1.90735e-006 127.325 67.7734 -159.767 12.8897 -1.90735e-006 1.59872e-014 -91.0402 6.8907e-007 -1.71905e-005 11.2622 1.37668e-014 3.55271e-015 -79.1165 73.9721 127.37 3.98015 -0.208662 -0.0949803 2.01946 8.48944 -35.6986 6.57561 -8.34464e-007 -1.19209e-007 179.96 1.73018e-005 -2.0058e-006 -6.81197 -4.13962 1.17789 -165.025 55.3211 -93.7189 13.2558 1.77636e-015 -9.53674e-007 71.6655 -17.6355 92.9026 12.8897 -9.53674e-007 -1.77636e-015 -136.981 2.37774e-006 1.09543e-007 11.2623 1.86517e-014 1.77636e-015 -81.0413 -86.1383 -103.162 3.98015 -0.208655 0.0949754 14.0219 -11.2936 55.1437 6.57563 -1.77636e-015 -1.19209e-007 -2.65667e-009 -8.69432e-009 -1.96422e-009 4.19499 -0.00312996 -2.60297e-012 2.30217 0.00240116 0.0594774 4.17604 0.298254 8.71918e-011 3.75562 -2.51642 2.53321 6.53258 -3.90694 -2.55361 133.025 18.1401 163.594 6.5326 -3.90696 2.55371 -46.976 18.1112 -16.4184 1.75934 -4.1584 -4.45634 1.66204 -39.9802 141.162 1.75933 -4.15841 4.45617 -178.315 -39.9861 -38.8231 11.2964 -1.06184 2.32054 151.761 -1.91284 -105.417 11.2964 -1.06183 -2.32036 -28.6591 -0.605116 76.2688 1.31489 1.30001 -1.6277e-012 -147.577 -0.081222 -179.789 12.6869 -1.90735e-006 1.16417e-010 -5.3724e-008 -4.37521e-011 2.91695e-011 
-21.7067 26.8352 0.0297104 -180 -90 -90 0 1.13687e-013 0 -99.2864 -0.364168 -89.9792 -7.25225 -1.74978 2.91021e-011 -30.9527 14.9012 -173.406 15.788 3.8147e-006 -9.53674e-007 -38.983 24.158 -0.565762 16.0015 -3.55271e-015 0 -27.3264 -15.1025 -15.1807 16.1689 -3.8147e-006 -2.27374e-013 -29.2256 0.128387 6.55417 6.4292 2.63381 0.438716 18.8815 8.76729 -3.06409 6.12663 8.45826 8.16088e-011 -88.9944 -0.0321808 -179.967 -7.23379 -1.29917 -5.35624 -91.9467 1.30432 173.684 13.6591 -5.72205e-006 -6.21725e-015 -45.6048 6.94434e-006 6.73382e-006 9.07515 1.90735e-006 -1.77636e-015 33.2214 1.28316e-006 -4.45723e-007 8.13856 -3.8147e-006 -1.77636e-015 30.0614 3.08849 5.57438 3.79737 6.30086 -3.86713e-011 90.2017 1.07243e-009 1.83567e-009 0.838761 2.16493e-015 3.55271e-015 -2.5066e-008 3.09094e-010 -1.86195e-009 -6.66041 0.355859 5.35618 -143.543 -2.98991 -176.544 13.6591 4.76837e-007 2.66454e-015 -104.098 -1.20009e-005 6.88091e-006 9.07516 1.90735e-006 -6.21725e-015 73.634 3.01781e-006 -9.79082e-006 8.13855 1.90735e-006 -8.88178e-016 -4.26264 -12.754 -4.63083 3.79737 6.30085 -1.85522e-009 90.1303 0.000429833 -12.498 0.838762 2.23517e-008 3.55271e-015 -179.96 0.000153812 -0.000136998 12.1681 -0.0104828 -2.92544e-014 -0.908105 -1.28353e-011 3.94876e-011 -0.1575 5.09007 -6.54008 -92.7406 -0.0220419 -167.965 -0.157502 5.09006 6.54 87.255 -0.000384725 12.0139 8.29709 8.50413 2.31866e-011 -91.651 -0.0231781 -179.978 13.2792 -0.00985909 5.81808e-011 -8.46288 0.337925 -2.26991 12.4883 -6.66643 9.27781e-009 -14.912 -1.94258e-005 5.20731e-006 -6.81588 -4.13293 -1.17794 -165.136 -45.4268 121.58 13.2557 -1.06581e-014 1.90735e-006 128.097 67.7612 -160.424 12.8897 -1.90735e-006 1.42109e-014 -90.6012 5.53289e-007 -1.71702e-005 11.2622 3.10862e-015 3.55271e-015 -79.4451 74.0649 127.612 3.98015 -0.208662 -0.0949803 2.04015 8.5021 -35.7654 6.57561 -8.34464e-007 -1.19209e-007 179.96 1.73018e-005 -2.0058e-006 -6.81588 -4.13294 1.17789 -165.08 55.3199 -93.7196 13.2558 0 -9.53674e-007 71.4665 -18.2204 92.99 12.8897 -9.53674e-007 0 -137 2.32777e-006 8.79512e-008 11.2623 2.22044e-014 0 -76.2867 -86.0716 -99.0944 3.98015 -0.208655 0.0949754 14.0237 -11.2964 55.3091 6.57563 -1.77636e-015 -1.19209e-007 -2.65667e-009 -8.69432e-009 -1.96422e-009 4.19499 -0.00312996 -2.75258e-012 3.08846 0.00327243 0.0604634 4.17604 0.298254 6.73379e-011 3.15102 -2.4104 2.57548 6.53258 -3.90694 -2.55361 133.025 18.1401 163.594 6.5326 -3.90696 2.55371 -46.976 18.1112 -16.4184 1.75934 -4.1584 -4.45634 1.71119 -39.9311 141.159 1.75933 -4.15841 4.45617 -178.267 -39.9368 -38.826 11.2964 -1.06184 2.32054 151.741 -2.20475 -106.989 11.2964 -1.06183 -2.32036 -28.7291 -1.19919 75.1339 1.31489 1.30001 -2.39297e-012 -148.06 -0.0788417 -179.793 12.6869 -1.90735e-006 1.16416e-010 -5.3724e-008 -4.37511e-011 2.91694e-011 
-21.7727 26.86 -2.15274e-008 -180 -90 -90 0 1.13687e-013 0 -99.2933 -0.752334 -89.7015 -7.25225 -1.74978 2.91038e-011 -31.1015 15.3938 -173.99 15.788 3.8147e-006 -9.53674e-007 -39.0747 24.0446 1.12439 16.0015 -1.06581e-014 4.88498e-015 -27.9644 -14.2655 -16.8424 16.1689 -3.8147e-006 -4.583e-013 -29.4392 0.133686 3.76713 6.44469 2.58889 0.46977 18.4945 8.68755 -3.32874 6.12663 8.45826 6.57622e-011 -88.9944 -0.0321808 -179.967 -7.25723 -1.29333 -5.35635 -92.1571 1.34343 173.633 13.6591 -5.72205e-006 -7.10543e-015 -45.8098 6.93554e-006 6.76576e-006 9.07515 1.90735e-006 -8.88178e-016 33.3747 1.27082e-006 -4.4364e-007 8.13856 -3.8147e-006 -5.32907e-015 29.9393 3.13008 5.62305 3.79737 6.30086 -2.37126e-011 90.1225 8.05611e-010 1.69794e-009 0.838761 -6.66134e-016 3.55271e-015 -2.5066e-008 3.09094e-010 -1.86195e-009 -6.63534 0.343195 5.35607 -143.364 -2.93108 -176.606 13.6591 4.76837e-007 2.66454e-015 -103.843 -1.19717e-005 6.93927e-006 9.07516 1.90735e-006 -3.55271e-015 73.9095 2.98261e-006 -9.80493e-006 8.13855 1.90735e-006 -7.99361e-015 -4.52793 -12.7441 -4.51206 3.79737 6.30085 -2.02903e-009 90.0308 0.000931668 -12.4979 0.838762 2.23518e-008 -5.32907e-015 -179.96 0.000153812 -0.000136998 12.1681 -0.0104828 -9.59606e-015 -0.937249 -1.50924e-011 3.78475e-011 -0.1575 5.09007 -6.54008 -92.7406 -0.0220419 -167.965 -0.157502 5.09006 6.54 87.255 -0.000384725 12.0139 8.29709 8.50413 7.59454e-012 -91.651 -0.0231781 -179.977 13.2792 -0.00985909 5.81992e-011 -8.32978 0.332228 -2.26782 12.4883 -6.66643 8.94158e-009 -14.8556 -1.94203e-005 5.22714e-006 -6.81983 -4.12617 -1.17794 -165.195 -45.4277 121.582 13.2557 -1.06581e-014 1.90735e-006 128.932 67.7994 -161.134 12.8897 -1.90735e-006 1.06581e-014 -90.1298 4.08578e-007 -1.7148e-005 11.2622 1.28786e-014 5.32907e-015 -79.7731 74.1472 127.812 3.98015 -0.208662 -0.0949803 2.06106 8.51484 -35.8328 6.57561 -8.34464e-007 -1.19209e-007 179.96 1.73018e-005 -2.00581e-006 -6.81983 -4.12617 1.17789 -165.136 55.3187 -93.7202 13.2558 1.06581e-014 -9.53674e-007 71.2795 -18.776 93.0835 12.8897 -9.53674e-007 7.10543e-015 -137 2.28072e-006 6.74351e-008 11.2623 1.59872e-014 3.55271e-015 -71.7059 -85.9831 -95.1727 3.98015 -0.208655 0.0949754 14.0257 -11.2993 55.4762 6.57563 -1.77636e-015 -1.19209e-007 -2.65667e-009 -8.69432e-009 -1.96422e-009 4.19499 -0.00312996 -2.88075e-012 3.92817 0.00398745 0.0579226 4.17604 0.298254 4.35864e-011 2.52955 -2.29384 2.60843 6.53258 -3.90694 -2.55361 133.025 18.1402 163.594 6.5326 -3.90696 2.55371 -46.976 18.1112 -16.4184 1.75934 -4.1584 -4.45634 1.76074 -39.8814 141.157 1.75933 -4.15841 4.45617 -178.218 -39.8869 -38.829 11.2964 -1.06184 2.32054 151.713 -2.4988 -108.576 11.2964 -1.06183 -2.32036 -28.8117 -1.79719 73.9867 1.31489 1.30001 -1.16185e-012 -148.546 -0.0764003 -179.798 12.6869 -1.90735e-006 1.16417e-010 -5.3724e-008 -4.37521e-011 2.91695e-011 
